<?xml version="1.0" encoding="UTF-8"?>
<svg width="109px" height="31px" viewBox="0 0 109 31" version="1.1" xmlns="http://www.w3.org/2000/svg" xmlns:xlink="http://www.w3.org/1999/xlink">
    <title>AD55A66B-9870-42DD-B7EB-983270238C57@3x</title>
    <defs>
        <polygon id="path-1" points="0 0 70.5282974 0 70.5282974 20.4801947 0 20.4801947"/>
    </defs>
    <g id="Desktop" stroke="none" stroke-width="1" fill="none" fill-rule="evenodd">
        <g id="Platform" transform="translate(-83.000000, -26.000000)">
            <g id="Group" transform="translate(83.000000, 20.000000)">
                <g id="Group-14" transform="translate(0.000000, 6.500000)">
                    <polygon id="Fill-1" fill="#001340" points="-3.55271368e-15 15.0001078 14.9992454 30 14.999461 30 6.74308465 15.0001078 15.0001078 0"/>
                    <polygon id="Fill-2" fill="#001340" points="15.0001078 0 23.2569153 15.0001078 15.0001078 30 15.000539 30 30.0002156 15.0001078"/>
                    <g id="Group-5" transform="translate(37.861765, 8.382756)">
                        <mask id="mask-2" fill="white">
                            <use xlink:href="#path-1"/>
                        </mask>
                        <g id="Clip-4"/>
                        <path d="M9.99001056,10.4651746 C10.8204992,9.6180848 11.2355279,8.48877551 11.2355279,7.0770311 C11.2355279,5.66528668 10.8245956,4.54417017 10.0025153,3.71389715 C8.43101181,2.09043419 5.84101705,2.04817672 4.2177697,3.61968024 C4.19426937,3.64231817 4.17098464,3.6656029 4.14791551,3.68888762 C3.32583527,4.5027751 2.91468735,5.61548324 2.91468735,7.02722765 C2.91468735,8.43897207 3.32583527,9.57237775 4.14791551,10.4278759 C5.65215204,12.050692 8.18716897,12.1470649 9.81020072,10.6426128 C9.87186213,10.585479 9.93179875,10.5261892 9.99001056,10.4651746 L9.99001056,10.4651746 Z M6.47725068,14.1773638 C4.72270333,14.2086257 3.04124415,13.4770972 1.8683838,12.1716433 C0.622650866,10.8347118 0,9.12393114 0,7.03951681 C0,4.95531809 0.618554478,3.26113855 1.85587903,1.9574094 C3.04534054,0.673946591 4.72787771,-0.0381779972 6.47725068,0.00170787893 C7.47741597,-0.0189896568 8.4642141,0.235201954 9.32962982,0.736685996 C10.1251913,1.19957776 10.7832005,1.86599529 11.2355279,2.6675936 L11.2355279,0.225931182 L14.1006274,0.225931182 L14.1006274,13.9531405 L11.2355279,13.9531405 L11.2355279,11.3868617 C10.7842785,12.2195063 10.1230354,12.9195573 9.31734065,13.4173762 C8.46205811,13.9354614 7.47698477,14.1989238 6.47725068,14.1773638 L6.47725068,14.1773638 Z M27.7778177,10.4403806 C28.6080907,9.57668973 29.023335,8.43897207 29.023335,7.02722765 C29.023335,5.61548324 28.6124027,4.5027751 27.7903225,3.68888762 C26.1888506,2.07210825 23.5796675,2.05981909 21.9628882,3.66129091 C21.9454246,3.67853886 21.9279611,3.696218 21.9107131,3.71389715 C21.0888485,4.54417017 20.677485,5.66528668 20.677485,7.0770311 C20.677485,8.48877551 21.0888485,9.61398842 21.9107131,10.4526698 C23.4444868,12.0694492 25.998692,12.1369318 27.615687,10.6031581 C27.6713116,10.5505519 27.7254271,10.4962209 27.7778177,10.4403806 L27.7778177,10.4403806 Z M25.4609873,0.00170787893 C27.2069107,-0.0396871925 28.8864295,0.673084193 30.0698542,1.9574094 C31.2987704,3.26113855 31.9134441,4.95531809 31.9134441,7.03951681 C31.9134441,9.12393114 31.294674,10.8347118 30.0573494,12.1716433 C28.8905258,13.4779596 27.2120851,14.2103505 25.4609873,14.1773638 C24.4612532,14.1987082 23.4761799,13.9354614 22.6208973,13.4173762 C21.811753,12.9156766 21.1431795,12.2171347 20.677485,11.3868617 L20.677485,20.4801947 L17.837395,20.4801947 L17.837395,0.225931182 L20.677485,0.225931182 L20.677485,2.6675936 C21.1442575,1.86836688 21.8093814,1.20345855 22.6083926,0.736685996 C23.4740239,0.235201954 24.4606064,-0.0189896568 25.4609873,0.00170787893 L25.4609873,0.00170787893 Z M34.7285245,13.9529249 L37.5686145,13.9529249 L37.5686145,0.225931182 L34.7285245,0.225931182 L34.7285245,13.9529249 Z M41.3055977,13.9529249 L44.1456877,13.9529249 L44.1456877,0.225931182 L41.3055977,0.225931182 L41.3055977,13.9529249 Z M50.7227608,0.225931182 L50.7227608,2.61757455 C51.6028373,0.87380717 52.972971,0.00170787893 54.8331621,0.00170787893 L54.8331621,2.94162035 L54.1109043,2.94162035 C52.9979806,2.94162035 52.1549872,3.22383987 51.5821398,3.78849451 C51.0090767,4.35314916 50.7227608,5.33304812 50.7227608,6.72819138 L50.7227608,13.9531405 L47.8824552,13.9531405 L47.8824552,0.225931182 L50.7227608,0.225931182 Z M66.3679418,10.5399875 C67.1984304,9.70949892 67.6134591,8.55539571 67.6134591,7.0770311 C67.6134591,5.59888209 67.2107196,4.44865966 66.4052405,3.62657942 C65.6454685,2.82368751 64.5834262,2.3763189 63.4780484,2.39356685 C62.3825882,2.37179132 61.3304635,2.82066912 60.588155,3.62657942 C59.8074698,4.44865966 59.417235,5.60297848 59.417235,7.08953586 C59.417235,8.57587764 59.7990614,9.73041206 60.5631455,10.5522767 C61.2897152,11.3584026 62.33106,11.8083584 63.4157402,11.7855049 C64.5295263,11.795638 65.5980366,11.3448198 66.3679418,10.5399875 L66.3679418,10.5399875 Z M63.4032354,14.1773638 C61.4102352,14.1773638 59.7660747,13.5251759 58.4705384,12.2214467 C57.175002,10.9179332 56.5273416,9.20715248 56.5273416,7.08953586 C56.5273416,4.97191924 57.1956995,3.26113855 58.532631,1.9574094 C59.869778,0.653680253 61.534636,0.00170787893 63.5278518,0.00170787893 C65.520852,0.00170787893 67.1859257,0.653680253 68.5228571,1.9574094 C69.8597886,3.26113855 70.5283621,4.96760725 70.5283621,7.0770311 C70.5283621,9.18623935 69.8431874,10.89702 68.4730537,12.2091576 C67.1027043,13.5212951 65.4128368,14.1773638 63.4032354,14.1773638 L63.4032354,14.1773638 Z" id="Fill-3" fill="#001340" mask="url(#mask-2)"/>
                    </g>
                </g>
            </g>
        </g>
    </g>
</svg>