<svg id="Layer_1" data-name="Layer 1" xmlns="http://www.w3.org/2000/svg" xmlns:xlink="http://www.w3.org/1999/xlink" viewBox="0 0 1002.53 280.59"><defs><style>.cls-1{fill:none;}.cls-2{fill:#f69220;}.cls-3{clip-path:url(#clip-path);}</style><clipPath id="clip-path" transform="translate(4 -0.14)"><path class="cls-1" d="M144.93,0V0H124.28a8.8,8.8,0,0,0-8.8,8.8V19.25a8.8,8.8,0,0,0,8.8,8.8h19.25A112.25,112.25,0,1,1,31.36,146.24h.06V125.59a8.8,8.8,0,0,0-8.8-8.8H12.17a8.8,8.8,0,0,0-8.8,8.8v14.63H3.16s0,.05,0,.08A140.3,140.3,0,1,0,144.93,0Z"/></clipPath></defs><title>BounceSecurity-Dark</title><path d="M340.92,252q13.51,0,13.51-9.24a9.24,9.24,0,0,0-1.2-4.84,11.58,11.58,0,0,0-3.24-3.47,22.6,22.6,0,0,0-4.67-2.54q-2.62-1.06-5.56-2.13a56.27,56.27,0,0,1-6.4-2.62,22.29,22.29,0,0,1-5.24-3.47,14.7,14.7,0,0,1-3.51-4.76,15.63,15.63,0,0,1-1.29-6.67q0-8.09,5.51-12.62t15.2-4.53a40.14,40.14,0,0,1,10.18,1.2,23.29,23.29,0,0,1,6.71,2.62l-2.75,7a24.38,24.38,0,0,0-5.56-2.27,29.84,29.84,0,0,0-8.58-1.11,19,19,0,0,0-4.62.53,11.87,11.87,0,0,0-3.74,1.6,7.92,7.92,0,0,0-2.53,2.71,7.71,7.71,0,0,0-.93,3.87,8.2,8.2,0,0,0,1,4.18,9.66,9.66,0,0,0,2.76,3,23.46,23.46,0,0,0,4.13,2.35q2.35,1.07,5.2,2.13,4,1.6,7.33,3.2a23.88,23.88,0,0,1,5.78,3.82,15.32,15.32,0,0,1,3.78,5.29,18.53,18.53,0,0,1,1.33,7.42q0,8.09-5.91,12.44t-16.67,4.35a42.82,42.82,0,0,1-6.71-.49,49.15,49.15,0,0,1-5.47-1.16,31.7,31.7,0,0,1-4.14-1.42q-1.73-.76-2.71-1.29l2.58-7.11a38.94,38.94,0,0,0,6.22,2.58A31.93,31.93,0,0,0,340.92,252Z" transform="translate(4 -0.14)"/><path d="M378.34,258.15v-61.6h37.6v7.38H387v18.31h25.78v7.2H387v21.33h31.2v7.38Z" transform="translate(4 -0.14)"/><path d="M457.54,259.48a31.55,31.55,0,0,1-11.82-2.13,25.13,25.13,0,0,1-9.16-6.22A28,28,0,0,1,430.65,241a41.71,41.71,0,0,1-2.09-13.73,37.33,37.33,0,0,1,2.36-13.73,29.74,29.74,0,0,1,6.36-10.09,26.89,26.89,0,0,1,9.33-6.22A30.39,30.39,0,0,1,458,195.12a40.36,40.36,0,0,1,6.89.53,41.59,41.59,0,0,1,5.33,1.24,25.64,25.64,0,0,1,3.69,1.42,20.79,20.79,0,0,1,2,1.07l-2.49,7.11a14,14,0,0,0-2.31-1.15q-1.51-.62-3.42-1.24a30.63,30.63,0,0,0-4.18-1,26.37,26.37,0,0,0-4.58-.4,22,22,0,0,0-8.8,1.69,18.21,18.21,0,0,0-6.67,4.89,22.11,22.11,0,0,0-4.22,7.78,33.54,33.54,0,0,0-1.47,10.27,36.66,36.66,0,0,0,1.29,10,22,22,0,0,0,3.87,7.78,17.35,17.35,0,0,0,6.44,5,21.38,21.38,0,0,0,9,1.78,33.1,33.1,0,0,0,9.87-1.24,43.47,43.47,0,0,0,5.87-2.22l2.22,7.11a12.27,12.27,0,0,1-2.22,1.11,30.27,30.27,0,0,1-4,1.29,50.95,50.95,0,0,1-12.53,1.51Z" transform="translate(4 -0.14)"/><path d="M513.54,259.48a27,27,0,0,1-10.49-1.87,19.6,19.6,0,0,1-7.29-5.11,20.83,20.83,0,0,1-4.22-7.69,32.25,32.25,0,0,1-1.38-9.6V196.55h8.62v37.69q0,9.24,4.09,13.42a14.26,14.26,0,0,0,10.67,4.18,16.88,16.88,0,0,0,6-1,12,12,0,0,0,4.67-3.15,14.52,14.52,0,0,0,3-5.47,26.28,26.28,0,0,0,1.07-8V196.55h8.62v38.67a32.25,32.25,0,0,1-1.38,9.6,20.56,20.56,0,0,1-4.27,7.69,20.08,20.08,0,0,1-7.29,5.11A26.64,26.64,0,0,1,513.54,259.48Z" transform="translate(4 -0.14)"/><path d="M586.34,232.37q1.42,1.78,3.6,4.67t4.49,6.4q2.31,3.51,4.58,7.33a74.4,74.4,0,0,1,3.86,7.38h-9.42q-1.78-3.38-3.87-6.84t-4.22-6.62q-2.13-3.15-4.22-5.91t-3.78-4.8q-1.15.09-2.35.09H564.83v24.09h-8.62V197.43a48.92,48.92,0,0,1,8.13-1.2q4.49-.31,8.22-.31,13,0,19.78,4.89t6.8,14.58a17.08,17.08,0,0,1-3.24,10.49A19.12,19.12,0,0,1,586.34,232.37Zm-13.07-28.89q-5.51,0-8.44.27v23.2H571a64.85,64.85,0,0,0,8-.44,18.22,18.22,0,0,0,6-1.69,9.06,9.06,0,0,0,3.78-3.51,11.79,11.79,0,0,0,1.33-6,11.43,11.43,0,0,0-1.33-5.78,9.93,9.93,0,0,0-3.6-3.65,15.78,15.78,0,0,0-5.33-1.87A38.31,38.31,0,0,0,573.27,203.48Z" transform="translate(4 -0.14)"/><path d="M616.56,196.55h8.62v61.6h-8.62Z" transform="translate(4 -0.14)"/><path d="M686.07,196.55V204H666.69v54.13h-8.62V204H638.69v-7.47Z" transform="translate(4 -0.14)"/><path d="M716.83,258.15V233.44q-6.13-9.51-11.56-18.76T695,196.55h10.13q3.38,7.29,7.56,14.8t8.62,14.44q4.35-6.93,8.53-14.44t7.65-14.8h9.6q-4.8,8.89-10.22,18.09t-11.46,18.62v24.89Z" transform="translate(4 -0.14)"/><path class="cls-2" d="M371.2,166.2q-11.31,0-22.53-.69a159.24,159.24,0,0,1-23.33-3.28V28.82a198.63,198.63,0,0,1,20.85-2.68q11.31-.89,21-.89a143.62,143.62,0,0,1,24.12,1.88,57.2,57.2,0,0,1,19,6.45,33.83,33.83,0,0,1,12.41,12Q427.18,53,427.18,64q0,16.48-15.88,26,13.1,5,17.87,13.5a38.84,38.84,0,0,1,4.76,19.26q0,21.64-15.78,32.56T371.2,166.2ZM355.51,80.84H370.6q14.3,0,20.45-3.67t6.15-11.81q0-8.34-6.35-11.71t-18.66-3.37q-4,0-8.53.1t-8.14.5Zm0,23.62V140q3.37.4,7.34.6t8.74.2q13.89,0,22.43-4t8.54-14.69q0-9.53-7.15-13.6T375,104.46Z" transform="translate(4 -0.14)"/><path class="cls-2" d="M554.44,112a67.88,67.88,0,0,1-3.58,22.53A49,49,0,0,1,540.54,152a46.44,46.44,0,0,1-16.18,11.22,54,54,0,0,1-21.14,4,53.48,53.48,0,0,1-20.95-4A46.4,46.4,0,0,1,466.09,152a51.26,51.26,0,0,1-10.52-17.47A64.59,64.59,0,0,1,451.8,112a62.39,62.39,0,0,1,3.87-22.43A50.88,50.88,0,0,1,466.39,72.3a48.18,48.18,0,0,1,16.28-11.12,52.43,52.43,0,0,1,20.55-4,53,53,0,0,1,20.74,4A47.21,47.21,0,0,1,540.14,72.3a50.5,50.5,0,0,1,10.52,17.27A63.82,63.82,0,0,1,554.44,112Zm-30.18,0q0-13.7-5.46-21.54t-15.58-7.84q-10.13,0-15.69,7.84T482,112q0,13.7,5.56,21.74t15.69,8q10.12,0,15.58-8T524.26,112Z" transform="translate(4 -0.14)"/><path class="cls-2" d="M666.4,160.84a163.94,163.94,0,0,1-19.46,4.07,159.88,159.88,0,0,1-25,1.89q-13.3,0-22.13-3.57a33.58,33.58,0,0,1-14-10,39,39,0,0,1-7.34-15.39,82.61,82.61,0,0,1-2.18-19.65V60h29.58v54.59q0,14.3,3.77,20.65t14.1,6.35q3.17,0,6.75-.3t6.35-.69V60H666.4Z" transform="translate(4 -0.14)"/><path class="cls-2" d="M694.19,63.57a165.93,165.93,0,0,1,19.46-4.07,159.88,159.88,0,0,1,25-1.89q13.3,0,22.13,3.47a33.29,33.29,0,0,1,14,9.83A38.34,38.34,0,0,1,782.14,86a80.29,80.29,0,0,1,2.18,19.46v59H754.75V109q0-14.29-3.77-20.25t-14.1-6q-3.18,0-6.75.3t-6.35.69v80.6H694.19Z" transform="translate(4 -0.14)"/><path class="cls-2" d="M806.16,112.2a61.53,61.53,0,0,1,3.67-21.34,50,50,0,0,1,27.5-29.28A55.72,55.72,0,0,1,860,57.21a73.14,73.14,0,0,1,15.29,1.49A74.68,74.68,0,0,1,888.75,63l-6.15,23.63a74.78,74.78,0,0,0-9.13-2.78,47.84,47.84,0,0,0-11.12-1.19q-13.1,0-19.55,8.14t-6.45,21.44q0,14.1,6.05,21.84t21.15,7.74a72.35,72.35,0,0,0,11.51-1,48.84,48.84,0,0,0,11.32-3.18l4.17,24.22a69.37,69.37,0,0,1-12.9,3.77,85.17,85.17,0,0,1-17.07,1.59q-14.29,0-24.62-4.27a46.32,46.32,0,0,1-17-11.61,45.23,45.23,0,0,1-9.73-17.37A73.62,73.62,0,0,1,806.16,112.2Z" transform="translate(4 -0.14)"/><path class="cls-2" d="M900.46,113q0-13.89,4.27-24.32a52.16,52.16,0,0,1,11.22-17.37,46.6,46.6,0,0,1,16-10.52,50,50,0,0,1,18.56-3.58q22.23,0,35.14,13.6t12.9,40c0,1.72-.07,3.61-.2,5.66s-.27,3.87-.4,5.46h-67.1a19.65,19.65,0,0,0,8.54,14.49q7.54,5.36,20.25,5.36a85.38,85.38,0,0,0,16-1.49,60.29,60.29,0,0,0,12.81-3.67l4,24A41.13,41.13,0,0,1,986,163a84,84,0,0,1-8.83,2.08q-4.87.89-10.42,1.49a104.2,104.2,0,0,1-11.12.6q-14.1,0-24.52-4.17a47.73,47.73,0,0,1-17.27-11.42,45.25,45.25,0,0,1-10.12-17.17A68,68,0,0,1,900.46,113Zm69.48-11.31a30.77,30.77,0,0,0-1.29-7.35A18.43,18.43,0,0,0,965.28,88a18,18,0,0,0-5.76-4.56,18.73,18.73,0,0,0-8.64-1.79,19.87,19.87,0,0,0-8.54,1.69,17.66,17.66,0,0,0-6,4.47,20,20,0,0,0-3.67,6.45,42.25,42.25,0,0,0-1.88,7.45Z" transform="translate(4 -0.14)"/><path class="cls-2" d="M143.51,168.4a28,28,0,0,0,28-28h0a28,28,0,0,0-28-28H118a2.56,2.56,0,0,0-2.56,2.56v25.49A28,28,0,0,0,143.51,168.4Z" transform="translate(4 -0.14)"/><path class="cls-2" d="M143.51,224.64a84.2,84.2,0,0,0,1.23-168.39v0H124.16a8.61,8.61,0,0,0-8.61,8.61V75.66a8.61,8.61,0,0,0,8.61,8.61h19.43a56.16,56.16,0,1,1-56.24,56.16s0-.05,0-.08h0V8.75A8.61,8.61,0,0,0,78.74.14H67.92a8.61,8.61,0,0,0-8.61,8.61V141.63h0A84.19,84.19,0,0,0,143.51,224.64Z" transform="translate(4 -0.14)"/><path class="cls-2" d="M145,.18v0H124.16a8.61,8.61,0,0,0-8.61,8.61V19.57a8.61,8.61,0,0,0,8.61,8.61h19.43A112.25,112.25,0,1,1,31.42,146.38h.06V125.55a8.61,8.61,0,0,0-8.61-8.61H12.05a8.61,8.61,0,0,0-8.61,8.61v14.81H3.22s0,.05,0,.08A140.3,140.3,0,1,0,145,.18Z" transform="translate(4 -0.14)"/><g class="cls-3"><rect y="114.03" width="44.19" height="22.69"/><rect x="-1.99" y="156.35" width="44.19" height="18.02" transform="translate(-15.76 3.48) rotate(-6.91)"/><rect x="11.4" y="193.17" width="44.19" height="18.02" transform="translate(-82.36 35.81) rotate(-26.38)"/><rect x="33.49" y="224.64" width="44.19" height="18.02" transform="translate(-136.73 95.15) rotate(-41.44)"/></g></svg>