<?xml version="1.0" encoding="UTF-8"?>
<svg width="38px" height="40px" viewBox="0 0 38 40" version="1.1" xmlns="http://www.w3.org/2000/svg" xmlns:xlink="http://www.w3.org/1999/xlink">
    <title>Jit- Automating product security-Logo-pink</title>
    <g id="Jit--Automating-product-security-Logo-pink" stroke="none" stroke-width="1" fill="none" fill-rule="evenodd">
        <path d="M9.53571556,2.19896889 L9.53571556,26.4081778 C9.50831407,28.9976178 9.0870163,31.3404444 8.27182222,33.4366578 C7.45662815,35.5328711 6.08997926,37.6427852 4.17187556,39.7664 L0,37.0125511 C1.1782637,35.3684622 2.00030815,33.7552 2.46613333,32.1727644 C2.93195852,30.5903289 3.16487111,28.6825007 3.16487111,26.44928 L3.16487111,2.19896889 L9.53571556,2.19896889 Z M32.6351644,2.19896889 L32.6351644,10.1316978 L38.2456178,10.1316978 L38.2456178,15.0845156 L32.6351644,15.0845156 L32.6351644,23.7365333 C32.6351644,24.7366874 32.7516207,25.52448 32.9845333,26.0999111 C33.2174459,26.6753422 33.5873659,27.0863644 34.0942933,27.3329778 C34.6012207,27.5795911 35.2794074,27.7028978 36.1288533,27.7028978 C36.6905837,27.7028978 37.4372741,27.6275437 38.3689244,27.4768356 L38.3689244,32.55296 C37.8071941,32.7036681 37.1803852,32.8201244 36.4884978,32.9023289 C35.7966104,32.9845333 35.1218489,33.0256356 34.4642133,33.0256356 C31.8062696,33.0256356 29.7888356,32.3440237 28.4119111,30.9808 C27.0349867,29.6175763 26.3465244,27.4768356 26.3465244,24.5585778 L26.3465244,15.0845156 L22.9144889,15.0845156 L22.9144889,10.1316978 L26.3465244,10.1316978 L27.4973867,2.19896889 L32.6351644,2.19896889 Z M20.5511111,10.1316978 L20.5511111,32.6146133 L14.24192,32.6146133 L14.24192,10.1316978 L20.5511111,10.1316978 Z M17.4067911,0 C18.7083615,0 19.6845393,0.301416296 20.3353244,0.904248889 C20.9861096,1.50708148 21.3115022,2.35652741 21.3115022,3.45258667 C21.3115022,4.54864593 20.9861096,5.39466667 20.3353244,5.99064889 C19.6845393,6.58663111 18.7083615,6.88462222 17.4067911,6.88462222 C16.09152,6.88462222 15.1084919,6.58663111 14.4577067,5.99064889 C13.8069215,5.39466667 13.4815289,4.54864593 13.4815289,3.45258667 C13.4815289,2.34282667 13.8069215,1.48995556 14.4577067,0.893973333 C15.1084919,0.297991111 16.09152,0 17.4067911,0 Z" id="Shape" fill="#E23CA0" fill-rule="nonzero"></path>
    </g>
</svg>