<svg xmlns="http://www.w3.org/2000/svg" viewBox="0 0 1000 197"><defs><style>.oclogopatha{fill:#009cde;}.oclogopathb{fill:#00263a;}.oclogopathc{fill:#fff;}</style></defs><path class="oclogopatha" d="M489.5,71.655c0-23.641-16.151-36.415-35.386-36.415-22.319,0-38.324,16.592-38.324,38.177,0,22.318,16,38.176,38.324,38.176,15.417,0,26.871-6.608,33.477-17.032l-12.333-8.81c-3.818,6.46-10.72,11.159-21,11.159-12.188,0-21.88-7.93-22.613-19.97h57.7C489.5,74.591,489.5,73.27,489.5,71.655Zm-57.119-6.461c2.2-10.866,11.747-16.3,21.145-16.3s17.914,5.727,19.676,16.3Zm-60.2-29.954c-9.544,0-17.912,4.111-22.318,11.453V36.708H333.708v73.417h16.153V74c0-15.711,8.221-24.081,18.942-24.081,9.4,0,15.27,7.049,15.27,18.648v41.554h16.151v-44.2C400.224,47.28,389.212,35.24,372.179,35.24Zm-93.236,0c-21.732,0-38.471,16.886-38.471,38.177s16.739,38.176,38.471,38.176,38.469-16.886,38.469-38.176S300.673,35.24,278.943,35.24Zm0,61.376c-13.068,0-22.172-10.131-22.172-23.2s9.1-23.2,22.172-23.2c12.921,0,22.024,10.132,22.024,23.2S291.864,96.616,278.943,96.616Z"/><path class="oclogopathb" d="M878.148,72.83c0,15.71-7.488,24.08-17.913,24.08-9.4,0-14.684-7.195-14.684-18.942V36.708H829.4v43.9c0,18.8,10.424,30.982,27.31,30.982,9.4,0,17.179-4.111,21.438-11.452v9.984H894.3V36.708H878.148Zm-85.013-6.315-7.488-2.2c-7.2-2.056-8.81-5.139-8.81-8.663,0-4.405,4.992-6.9,9.837-6.9a16.67,16.67,0,0,1,13.949,7.489l11.16-8.517c-5.139-8.075-13.8-12.48-24.815-12.48-14.683,0-26.137,7.929-26.284,21C760.537,67.1,767.146,75.178,779.92,78.7l6.46,1.763c8.811,2.643,11.306,5.139,11.306,9.4,0,5.139-4.845,7.782-10.572,7.782-7.488,0-14.683-3.671-17.62-10.131L757.6,96.029c5.285,10.425,16.444,15.564,29.512,15.564,15.124,0,26.577-8.663,26.577-22.759C813.691,76.793,806.056,70.333,793.135,66.515Zm122.893,43.61H932.18V0H916.028ZM997.813,51.1V36.708h-21V16.3H960.664V36.708h-15.27V51.1h15.27V86.485c0,16.592,11.013,24.374,25.11,24.374a39.1,39.1,0,0,0,12.039-1.615V94.854a26.089,26.089,0,0,1-8.663,1.469c-8.37,0-12.335-3.378-12.335-12.481V51.1ZM621.786,35.24c-21.732,0-38.471,16.886-38.471,38.177s16.739,38.176,38.471,38.176,38.469-16.886,38.469-38.176S643.517,35.24,621.786,35.24Zm0,61.376c-13.068,0-22.171-10.131-22.171-23.2s9.1-23.2,22.171-23.2c12.921,0,22.024,10.132,22.024,23.2S634.707,96.616,621.786,96.616ZM692.7,74c0-15.711,8.222-24.081,18.942-24.081,9.4,0,15.27,7.049,15.27,18.648v41.554h16.151v-44.2c0-18.648-11.012-30.688-28.045-30.688-9.544,0-17.912,4.111-22.318,11.453V36.708H676.551v73.417H692.7ZM559.677,83.7a21.871,21.871,0,0,1-20.115,12.921c-13.068,0-22.319-10.131-22.319-23.2s9.251-23.2,22.319-23.2a21.871,21.871,0,0,1,20.115,12.921l14.1-7.635C567.46,43.316,554.686,35.24,539.562,35.24c-22.025,0-38.763,16.445-38.763,38.177s16.738,38.176,38.763,38.176c15.124,0,27.9-8.076,34.212-20.263Z"/><path class="oclogopatha" d="M257.824,185.068c-4.61,0-8.107-2.6-8.107-8.107V162.5H244.1V158.31h5.617v-7.365h4.557v7.365H261.9V162.5h-7.629v13.882c0,3.391,1.536,4.5,4.4,4.5a10.06,10.06,0,0,0,3.232-.529v4.08A12.673,12.673,0,0,1,257.824,185.068Z"/><path class="oclogopatha" d="M279.124,185.333a13.777,13.777,0,1,1,13.83-13.776A13.608,13.608,0,0,1,279.124,185.333Zm0-4.239c5.512,0,9.167-4.239,9.167-9.537s-3.655-9.538-9.167-9.538-9.22,4.239-9.22,9.538S273.614,181.094,279.124,181.094Z"/><path class="oclogopatha" d="M310.757,196.407c-5.722,0-10.173-2.438-12.452-5.405l3.18-3.179a11.33,11.33,0,0,0,9.272,4.451c4.5,0,8.849-2.809,8.849-9.166v-3.021a11.312,11.312,0,0,1-9.22,4.663c-7.365,0-12.981-5.934-12.981-13.512,0-7.524,5.616-13.458,12.981-13.458a11.274,11.274,0,0,1,9.22,4.61v-4.08h4.556v24.956C324.162,192.115,318.334,196.407,310.757,196.407Zm.266-15.9c5.3,0,8.953-3.921,8.953-9.273,0-5.3-3.656-9.272-8.953-9.272s-8.955,3.974-8.955,9.272C302.068,176.59,305.724,180.511,311.023,180.511Z"/><path class="oclogopatha" d="M344.456,157.78c6.941,0,12.557,4.822,12.611,13.3a12.7,12.7,0,0,1-.054,1.378H335.289a9.38,9.38,0,0,0,17.432,4.079l3.6,2.49c-2.384,3.868-6.411,6.306-11.922,6.306-8.213,0-13.723-5.987-13.723-13.776A13.425,13.425,0,0,1,344.456,157.78Zm-8.848,10.968h16.8a7.928,7.928,0,0,0-8.108-6.941A8.659,8.659,0,0,0,335.608,168.748Z"/><path class="oclogopatha" d="M373.44,185.068c-4.611,0-8.108-2.6-8.108-8.107V162.5h-5.615V158.31h5.615v-7.365h4.557v7.365h7.631V162.5h-7.631v13.882c0,3.391,1.537,4.5,4.4,4.5a10.08,10.08,0,0,0,3.233-.529v4.08A12.68,12.68,0,0,1,373.44,185.068Z"/><path class="oclogopatha" d="M383.349,145.064h4.556V162.39a9.369,9.369,0,0,1,8.425-4.61c5.934,0,10.014,4.134,10.014,10.7V184.8h-4.5V169.172c0-4.451-2.543-7.206-6.252-7.206-4.292,0-7.683,3.5-7.683,9.7V184.8h-4.556Z"/><path class="oclogopatha" d="M426.267,157.78c6.941,0,12.556,4.822,12.61,13.3a12.7,12.7,0,0,1-.054,1.378H417.1a9.38,9.38,0,0,0,17.432,4.079l3.6,2.49c-2.384,3.868-6.411,6.306-11.922,6.306-8.212,0-13.722-5.987-13.722-13.776A13.425,13.425,0,0,1,426.267,157.78Zm-8.849,10.968h16.8a7.927,7.927,0,0,0-8.107-6.941A8.659,8.659,0,0,0,417.418,168.748Z"/><path class="oclogopatha" d="M445.341,158.31H449.9v5.139a7.882,7.882,0,0,1,7.417-5.4,9.431,9.431,0,0,1,2.067.212v4.716a6.654,6.654,0,0,0-2.49-.424c-3.337,0-6.994,2.914-6.994,9.114V184.8h-4.557Z"/><path class="oclogopathb" d="M487.094,157.78a11.618,11.618,0,0,1,9.326,4.61v-4.08h4.557V184.8H496.42v-4.08a11.618,11.618,0,0,1-9.326,4.61c-7.417,0-12.98-6.2-12.98-13.776S479.677,157.78,487.094,157.78Zm.69,4.186c-5.351,0-9.061,4.239-9.061,9.591s3.71,9.59,9.061,9.59,9.007-4.239,9.007-9.59S493.135,161.966,487.784,161.966Z"/><path class="oclogopathb" d="M520.847,196.407c-5.723,0-10.173-2.438-12.452-5.405l3.18-3.179a11.33,11.33,0,0,0,9.272,4.451c4.5,0,8.849-2.809,8.849-9.166v-3.021a11.313,11.313,0,0,1-9.22,4.663c-7.366,0-12.981-5.934-12.981-13.512,0-7.524,5.615-13.458,12.981-13.458a11.275,11.275,0,0,1,9.22,4.61v-4.08h4.556v24.956C534.252,192.115,528.424,196.407,520.847,196.407Zm.265-15.9c5.3,0,8.955-3.921,8.955-9.273,0-5.3-3.656-9.272-8.955-9.272s-8.955,3.974-8.955,9.272C512.157,176.59,515.813,180.511,521.112,180.511Z"/><path class="oclogopathb" d="M553.751,157.78a11.622,11.622,0,0,1,9.326,4.61v-4.08h4.557V184.8h-4.557v-4.08a11.622,11.622,0,0,1-9.326,4.61c-7.418,0-12.982-6.2-12.982-13.776S546.333,157.78,553.751,157.78Zm.689,4.186c-5.352,0-9.061,4.239-9.061,9.591s3.709,9.59,9.061,9.59,9.007-4.239,9.007-9.59S559.791,161.966,554.44,161.966Z"/><path class="oclogopathb" d="M578.549,151.21a3.257,3.257,0,0,1-3.286-3.233,3.291,3.291,0,0,1,3.286-3.231,3.232,3.232,0,0,1,0,6.464Zm-2.331,7.1h4.556V184.8h-4.556Z"/><path class="oclogopathb" d="M589.411,158.31h4.556v4.08a9.369,9.369,0,0,1,8.425-4.61c5.935,0,10.014,4.134,10.014,10.7V184.8h-4.5V169.172c0-4.451-2.542-7.206-6.252-7.206-4.292,0-7.683,3.5-7.683,9.7V184.8h-4.556Z"/><path class="oclogopathb" d="M628.62,185.333c-4.716,0-8.8-2.014-10.385-6.147l3.708-2.066c.954,2.7,3.816,4.186,6.73,4.186,2.544,0,4.609-1.272,4.609-3.551,0-1.906-1.165-3.072-4.609-4.132l-2.649-.848c-4.345-1.272-6.624-4.027-6.624-7.735.053-4.557,4.027-7.26,9.114-7.26,3.92,0,6.994,1.642,8.743,4.61l-3.392,2.331a6.516,6.516,0,0,0-5.51-3.02c-2.226,0-4.4,1.218-4.4,3.179,0,1.59.848,2.915,3.763,3.816l2.913.9c4.557,1.377,7.206,3.762,7.206,7.789C637.839,182.472,633.918,185.333,628.62,185.333Z"/><path class="oclogopathb" d="M654.477,185.068c-4.609,0-8.106-2.6-8.106-8.107V162.5h-5.617V158.31h5.617v-7.365h4.557v7.365h7.629V162.5h-7.629v13.882c0,3.391,1.536,4.5,4.4,4.5a10.064,10.064,0,0,0,3.232-.529v4.08A12.675,12.675,0,0,1,654.477,185.068Z"/><path class="oclogopathb" d="M688.971,185.333a13.777,13.777,0,1,1,0-27.553,13.721,13.721,0,0,1,12.24,7.1l-3.974,2.226a8.98,8.98,0,0,0-8.266-5.087c-5.511,0-9.272,4.239-9.272,9.538s3.761,9.537,9.272,9.537a8.982,8.982,0,0,0,8.266-5.087l3.974,2.226A13.719,13.719,0,0,1,688.971,185.333Z"/><path class="oclogopathb" d="M709,195.877l5.774-12.452-11.6-25.115h5.033l9.114,20.081,9.061-20.081h5.086l-17.379,37.567Z"/><path class="oclogopathb" d="M740.579,184.8h-4.556V145.064h4.556V162.39a11.624,11.624,0,0,1,9.326-4.61c7.365,0,12.982,6.2,12.982,13.777s-5.617,13.776-12.982,13.776a11.624,11.624,0,0,1-9.326-4.61Zm8.638-22.837c-5.352,0-9.008,4.239-9.008,9.591s3.656,9.59,9.008,9.59,9.007-4.239,9.007-9.59S754.568,161.966,749.217,161.966Z"/><path class="oclogopathb" d="M781.114,157.78c6.941,0,12.558,4.822,12.61,13.3a13.188,13.188,0,0,1-.052,1.378H771.948a9.38,9.38,0,0,0,17.433,4.079l3.6,2.49c-2.384,3.868-6.411,6.306-11.921,6.306-8.213,0-13.723-5.987-13.723-13.776A13.425,13.425,0,0,1,781.114,157.78Zm-8.849,10.968h16.8a7.926,7.926,0,0,0-8.106-6.941A8.662,8.662,0,0,0,772.265,168.748Z"/><path class="oclogopathb" d="M800.19,158.31h4.556v5.139a7.88,7.88,0,0,1,7.418-5.4,9.435,9.435,0,0,1,2.066.212v4.716a6.655,6.655,0,0,0-2.489-.424c-3.339,0-7,2.914-7,9.114V184.8H800.19Z"/><path class="oclogopathb" d="M829.6,157.78a11.619,11.619,0,0,1,9.325,4.61v-4.08h4.557V184.8h-4.557v-4.08a11.619,11.619,0,0,1-9.325,4.61c-7.418,0-12.981-6.2-12.981-13.776S822.179,157.78,829.6,157.78Zm.688,4.186c-5.351,0-9.06,4.239-9.06,9.591s3.709,9.59,9.06,9.59,9.007-4.239,9.007-9.59S835.637,161.966,830.285,161.966Z"/><path class="oclogopathb" d="M862.342,185.068c-4.61,0-8.107-2.6-8.107-8.107V162.5h-5.617V158.31h5.617v-7.365h4.557v7.365h6.888V162.5h-6.888v13.882c0,3.391,1.536,4.5,4.4,4.5a10.069,10.069,0,0,0,3.232-.529v4.08A12.68,12.68,0,0,1,862.342,185.068Zm19.393,0c-4.61,0-8.107-2.6-8.107-8.107V162.5h-4.98V158.31h4.98v-7.365h4.557v7.365h7.682V162.5h-7.682v13.882c0,3.391,1.536,4.5,4.4,4.5a10.4,10.4,0,0,0,3.284-.529v4.08A13.273,13.273,0,0,1,881.735,185.068Z"/><path class="oclogopathb" d="M902.24,157.78a11.618,11.618,0,0,1,9.326,4.61v-4.08h4.557V184.8h-4.557v-4.08a11.618,11.618,0,0,1-9.326,4.61c-7.417,0-12.98-6.2-12.98-13.776S894.823,157.78,902.24,157.78Zm.69,4.186c-5.352,0-9.061,4.239-9.061,9.591s3.709,9.59,9.061,9.59,9.007-4.239,9.007-9.59S908.281,161.966,902.93,161.966Z"/><path class="oclogopathb" d="M936.522,185.333a13.777,13.777,0,1,1,0-27.553,13.721,13.721,0,0,1,12.24,7.1l-3.974,2.226a8.98,8.98,0,0,0-8.266-5.087c-5.51,0-9.271,4.239-9.271,9.538s3.761,9.537,9.271,9.537a8.982,8.982,0,0,0,8.266-5.087l3.974,2.226A13.719,13.719,0,0,1,936.522,185.333Z"/><path class="oclogopathb" d="M954.643,145.064H959.2v23.578l11.551-10.332h6.041l-13.035,11.71L979.706,184.8h-6.147L959.2,171.557V184.8h-4.557Z"/><path class="oclogopathb" d="M990.779,185.333c-4.714,0-8.795-2.014-10.384-6.147l3.709-2.066c.953,2.7,3.815,4.186,6.73,4.186,2.541,0,4.609-1.272,4.609-3.551,0-1.906-1.167-3.072-4.609-4.132l-2.651-.848c-4.345-1.272-6.623-4.027-6.623-7.735.053-4.557,4.027-7.26,9.114-7.26,3.92,0,6.994,1.642,8.742,4.61l-3.391,2.331a6.514,6.514,0,0,0-5.51-3.02c-2.225,0-4.4,1.218-4.4,3.179,0,1.59.847,2.915,3.761,3.816l2.915.9c4.557,1.377,7.207,3.762,7.207,7.789C1000,182.472,996.078,185.333,990.779,185.333Z"/><circle class="oclogopatha" cx="98.203" cy="98.203" r="98.203"/><path class="oclogopathc" d="M51.44,124.091h93.527V109.426H51.44Zm0,24.468h93.527V133.894H51.44Zm0-63.6V99.623h93.527V84.958Zm28.625-15.11c0-11.8,7.434-19.837,18.1-19.837,10.551,0,17.984,7.925,17.984,19.837v5.307H132.6l.032-7.668c0-16.938-15.009-32.693-34.454-32.693S63.783,50.355,63.783,67.487l-.032,7.668H80.065Z"/></svg>